PathFileType	4	(X/Y/Z)	D:\Share\Shared_Data\Ergonomics\Sit To Stand Pertubation\S0\Perturbed STS.trc
DataRate	CameraRate	NumFrames	NumMarkers	Units	OrigDataRate	OrigDataStartFrame	OrigNumFrames	
100	100	13	18	m	100	6274	181
Frame#	Time	R_Heel			R_ASIS			R_Pelvis			V_Sacral			L_Pelvis			L_ASIS			Clavical			R_Acromium			L_Acromium			Sternum			Torso			R_Thigh_Med			R_Thigh_Lat			R_Thigh			R_Shank_Med			R_Shank_Lat			R_Shank			R_Toe			
		X1	Y1	Z1	X2	Y2	Z2	X3	Y3	Z3	X4	Y4	Z4	X5	Y5	Z5	X6	Y6	Z6	X7	Y7	Z7	X8	Y8	Z8	X9	Y9	Z9	X10	Y10	Z10	X11	Y11	Z11	X12	Y12	Z12	X13	Y13	Z13	X14	Y14	Z14	X15	Y15	Z15	X16	Y16	Z16	X17	Y17	Z17	X18	Y18	Z18	

6274	19.08	0.15217339	0.040953461	0.14524268	0.30028491	0.99741626	0.1543497	0.17591475	1.0195157	0.19586121	0.053740589	1.0266814	-0.03154213	0.19599385	1.0063729	-0.21212971	0.31146735	0.98124231	-0.16376163	0.35953537	1.4286976	-0.016770805	0.28159714	1.4993298	0.12248638	0.27735535	1.5025236	-0.16951102	0.38612259	1.3339282	-0.032029312	0.3605777	1.3804078	-0.13925693	0.28175223	0.49346588	0.040213951	0.27950516	0.51898236	0.16780423	0.34737329	0.65342505	0.10113779	0.24996048	0.099583481	0.097362007	0.19177933	0.086678543	0.18632114	0.23065968	0.31736954	0.19483783	0.38186905	0.046286186	0.13953043
6275	19.09	0.15217072	0.040944397	0.14526173	0.30214838	0.99835291	0.15466461	0.1775634	1.0197839	0.19574832	0.055882828	1.0263774	-0.031874285	0.19860567	1.006593	-0.21205927	0.31403857	0.9819397	-0.16353859	0.35875473	1.4302458	-0.016482862	0.28015924	1.5003179	0.12279308	0.27603873	1.5034827	-0.16935159	0.38599619	1.3356591	-0.031729277	0.36013339	1.3819573	-0.13902892	0.28068213	0.49357642	0.040166447	0.27834778	0.51918262	0.16763556	0.34727432	0.65307147	0.10115973	0.24989497	0.099674698	0.097465042	0.19165213	0.086663666	0.18630763	0.22969023	0.31752509	0.19482823	0.38185947	0.046302341	0.13966846
6276	19.1	0.15216895	0.040934505	0.14527452	0.30397107	0.99923468	0.15496443	0.17919026	1.0200007	0.19564241	0.057963303	1.0260164	-0.03219014	0.20113387	1.0067603	-0.21199269	0.31653094	0.98257678	-0.16332202	0.35800253	1.4316726	-0.016207237	0.27876382	1.5011942	0.12308449	0.2747728	1.504338	-0.16920923	0.38586075	1.337264	-0.031443142	0.35968417	1.3833789	-0.13881772	0.27958929	0.49368475	0.040104767	0.27719757	0.51936395	0.16745787	0.34716422	0.65271655	0.10114407	0.24982629	0.099760529	0.097551971	0.19153423	0.086649895	0.18628296	0.22874034	0.31767618	0.19481015	0.38184973	0.046313583	0.1397944
6277	19.11	0.15217052	0.040927002	0.14527954	0.30575018	1.0000528	0.15524504	0.18079834	1.0201711	0.19554723	0.059987541	1.0256045	-0.032483486	0.20357919	1.0068731	-0.21192899	0.31893222	0.98315131	-0.16311595	0.35727521	1.4329808	-0.015944833	0.277409	1.5019617	0.12335979	0.27355566	1.5050941	-0.16908377	0.38571866	1.338748	-0.031172743	0.35923172	1.3846777	-0.13862244	0.27847455	0.49379456	0.040029079	0.27607056	0.51952881	0.16726791	0.34704785	0.65236938	0.10107738	0.24975232	0.099840721	0.09762104	0.19142513	0.086637115	0.18624609	0.22782574	0.31782437	0.19478104	0.38184122	0.046312885	0.13990884
6278	19.12	0.15217709	0.040924191	0.14527611	0.30748505	1.0008004	0.15550392	0.18238629	1.0203008	0.19546695	0.061963066	1.0251479	-0.032749207	0.20594565	1.0069297	-0.21186629	0.32123413	0.98366077	-0.16292282	0.35656607	1.4341748	-0.015696731	0.27609174	1.5026255	0.12361861	0.27238541	1.5057567	-0.16897498	0.38557297	1.3401178	-0.030918848	0.35877908	1.3858612	-0.13844157	0.27734183	0.49390866	0.039945885	0.27497757	0.51968359	0.16706789	0.34692883	0.65203815	0.10095511	0.24967085	0.099916634	0.097673218	0.19132268	0.086625153	0.1861974	0.22695216	0.31797171	0.19474153	0.38183389	0.046295097	0.14001474
6279	19.13	0.15218903	0.040926876	0.14526483	0.30917813	1.0014739	0.15574059	0.18395259	1.0203962	0.1954043	0.063899212	1.0246519	-0.032983715	0.20823872	1.0069299	-0.21180331	0.32344006	0.98410614	-0.1627439	0.35586697	1.4352603	-0.015464406	0.27480853	1.5031921	0.12386111	0.27125958	1.5063314	-0.16888213	0.38542511	1.3413807	-0.030681299	0.3583299	1.3869371	-0.13827376	0.27619321	0.49402802	0.039865612	0.27391904	0.51983661	0.1668652	0.34680887	0.6517298	0.10078116	0.24957961	0.099990723	0.097712021	0.19122296	0.086613495	0.18613879	0.22611203	0.31812042	0.19469603	0.38182645	0.046257431	0.14011716
6280	19.14	0.15220589	0.040934616	0.14524774	0.31083566	1.0020756	0.15595599	0.18549803	1.0204655	0.19535933	0.06580616	1.0241212	-0.033185501	0.21046765	1.0068762	-0.21174097	0.3255647	0.98449261	-0.1625799	0.35517136	1.4362444	-0.015249369	0.27355569	1.5036703	0.12408813	0.27017496	1.5068239	-0.16880412	0.38527426	1.3425441	-0.030459387	0.35788748	1.3879149	-0.13811784	0.27502551	0.494151	0.039800007	0.27288309	0.51999463	0.16667001	0.34668744	0.65144769	0.10056649	0.24947682	0.10006573	0.097742905	0.19112132	0.086601036	0.18607384	0.22528552	0.31827191	0.19465201	0.38181702	0.046199657	0.14022226
6281	19.15	0.15222655	0.040946259	0.14522769	0.31246576	1.0026129	0.15615169	0.18702538	1.0205178	0.19532954	0.06769252	1.0235592	-0.033355946	0.212649	1.0067755	-0.21168288	0.32762558	0.98482788	-0.16243156	0.35447623	1.4371351	-0.015052375	0.27233011	1.5040685	0.12430074	0.2691279	1.5072394	-0.16873964	0.38511862	1.3436161	-0.03025223	0.35745456	1.3888032	-0.13797302	0.27383054	0.49427527	0.039759975	0.27184692	0.52016119	0.16649289	0.34656143	0.65119226	0.10032678	0.24936191	0.10014404	0.097772377	0.19101306	0.086585938	0.1860071	0.22444572	0.31842694	0.19461876	0.38180353	0.046124004	0.1403362
6282	19.16	0.15224957	0.040960266	0.14520738	0.31407623	1.0030973	0.15632872	0.18853809	1.0205635	0.19531041	0.069562401	1.0229691	-0.033499641	0.21480353	1.0066364	-0.21163402	0.32963596	0.98511993	-0.16230046	0.35378214	1.4379414	-0.014873207	0.27112921	1.504395	0.12449973	0.26811465	1.5075828	-0.16868752	0.38495807	1.3446039	-0.0300592	0.35703339	1.389611	-0.13783873	0.27259619	0.4943992	0.039753555	0.27078192	0.52033746	0.16634372	0.34642502	0.65096033	0.10007959	0.2492352	0.10022743	0.097807076	0.19089369	0.086566002	0.18594298	0.22356512	0.31858563	0.19460555	0.38178424	0.046034645	0.14046391
6283	19.17	0.15227312	0.040974968	0.14518936	0.31567282	1.0035414	0.15648695	0.19003917	1.0206125	0.19529628	0.071413849	1.0223538	-0.033623322	0.21694287	1.0064664	-0.21159866	0.33160126	0.98537549	-0.16218916	0.35309207	1.4386718	-0.014711221	0.26995221	1.5046573	0.12468555	0.26713174	1.507859	-0.16864702	0.38479355	1.3455142	-0.029880283	0.35662546	1.3903461	-0.13771478	0.27130865	0.49452234	0.039784462	0.26965994	0.52052325	0.16623009	0.34626862	0.65074524	0.099841721	0.24909752	0.1003174	0.09785321	0.19075945	0.086539246	0.18588515	0.22262181	0.31874796	0.19461986	0.38175775	0.045936985	0.1406086
6284	19.18	0.15229533	0.040989002	0.14517593	0.31725824	1.0039562	0.15662474	0.19153015	1.0206738	0.19528145	0.073239746	1.0217166	-0.033733982	0.21905595	1.0062701	-0.2115787	0.33351865	0.98559906	-0.16210101	0.35241022	1.4393337	-0.014565917	0.26879999	1.5048624	0.12485851	0.26617651	1.5080726	-0.16861772	0.3846264	1.3463523	-0.029716145	0.35623224	1.391015	-0.13760153	0.26995407	0.49464474	0.039851524	0.26845828	0.52071777	0.16615594	0.3460766	0.65053656	0.099627159	0.2489502	0.10041563	0.097915833	0.19060849	0.086504631	0.18583641	0.22160312	0.31891336	0.19466628	0.38172375	0.045836994	0.14077104
6285	19.19	0.15231458	0.041001469	0.14516893	0.31883167	1.0043494	0.15673923	0.1930106	1.0207536	0.19526096	0.075029991	1.0210616	-0.033837105	0.22111263	1.0060494	-0.21157408	0.33537866	0.9857926	-0.16203911	0.35174149	1.4399341	-0.014437061	0.26767554	1.5050149	0.12501904	0.26524704	1.5082283	-0.16859932	0.38445728	1.3471228	-0.029567917	0.35585477	1.3916239	-0.13749963	0.26852084	0.49476657	0.039949028	0.26716415	0.52091968	0.16612108	0.3458241	0.65032031	0.099445297	0.24879486	0.10052405	0.097998077	0.19044167	0.086462418	0.18579846	0.22050714	0.31908115	0.19474529	0.38168268	0.045740398	0.14094966
6286	19.2	0.15232892	0.041011456	0.14516902	0.3203869	1.0047245	0.15682715	0.19447769	1.0208547	0.19523126	0.076773598	1.020394	-0.033935753	0.22308199	1.0058068	-0.21158395	0.33716812	0.98595593	-0.16200502	0.351091	1.4404778	-0.014324478	0.2665835	1.5051182	0.12516785	0.26434259	1.5083318	-0.16859154	0.38428619	1.3478286	-0.029436829	0.35549393	1.3921766	-0.13740985	0.26700235	0.49488803	0.040067326	0.26577661	0.52112708	0.16612199	0.34547861	0.6500824	0.099299644	0.24863286	0.10064409	0.098100639	0.19026221	0.0864142	0.18577203	0.21934177	0.31925104	0.19485329	0.38163467	0.045652153	0.14114044
